<svg xmlns="http://www.w3.org/2000/svg" xml:space="preserve" width="10.239" height="10.239" version="1.0"
    style="shape-rendering:geometricPrecision;text-rendering:geometricPrecision;image-rendering:optimizeQuality;fill-rule:evenodd;clip-rule:evenodd" viewBox="0 0 270.92 270.92">
    <defs>
        <style>
            .fil0 {
                fill: currentColor;
                fill-rule: nonzero
            }
        </style>
    </defs>
    <g id="Слой_x0020_1">
        <g id="icon-linkedin.svg">
            <path class="fil0"
                d="M135.46 0C60.64 0-.01 60.64-.01 135.46s60.65 135.47 135.47 135.47 135.47-60.65 135.47-135.47S210.28 0 135.46 0m84.56 219.97c-11.01 11-23.76 19.63-37.99 25.61-14.71 6.24-30.38 9.36-46.57 9.36-16.14 0-31.8-3.17-46.57-9.36a119.4 119.4 0 0 1-37.99-25.61c-11.01-11.01-19.63-23.76-25.61-38-6.25-14.71-9.42-30.37-9.42-46.51s3.17-31.8 9.37-46.57A119.3 119.3 0 0 1 50.85 50.9c11.06-11.01 23.81-19.63 38.04-25.66 14.77-6.2 30.43-9.37 46.57-9.37s31.8 3.17 46.57 9.37a119.3 119.3 0 0 1 37.99 25.61c11.01 11 19.63 23.76 25.61 37.99 6.25 14.71 9.37 30.37 9.37 46.57 0 16.14-3.18 31.8-9.37 46.56-6.03 14.24-14.66 27.04-25.61 38" />
            <path class="fil0"
                d="M71.17 107.63h26.41v84.51H71.17zm12.64-39.9c-9.73 0-16.14 6.29-16.14 14.66 0 8.2 6.2 14.65 15.77 14.65h.22c9.94 0 16.13-6.51 16.08-14.65-.21-8.37-6.19-14.66-15.93-14.66m85.89 39.1c-15.14 0-24.61 8.26-26.36 14.08v-13.28h-29.68c.37 7.03 0 84.5 0 84.5h29.68v-45.66c0-2.6-.1-5.14.64-6.94 2.01-5.07 6.4-10.37 14.29-10.37 10.32 0 14.97 7.83 14.97 19.26v43.71h29.95v-46.99c0-26.14-14.71-38.31-33.49-38.31" />
        </g>
    </g>
</svg>
