<svg xmlns="http://www.w3.org/2000/svg" xml:space="preserve" width="10.239" height="10.239" version="1.0"
    style="shape-rendering:geometricPrecision;text-rendering:geometricPrecision;image-rendering:optimizeQuality;fill-rule:evenodd;clip-rule:evenodd"
    viewBox="0 0 270.92 270.92">
    <path
        d="M135.46-.01C60.64-.01-.01 60.64-.01 135.46s60.65 135.47 135.47 135.47 135.47-60.65 135.47-135.47S210.28-.01 135.46-.01m35.43 207.12c-1.88 0-4.08-.39-6.56-1.47-.37-.16-.73-.37-1.06-.62l-29.4-22.54-17.45 15.92c-1.01 1.21-2.75 2.18-5.57 2.18-.94 0-1.76-.11-2.47-.3-4.34-.46-6.19-5.13-7.57-9.52-1.63-5.14-8.66-28.15-11.01-35.88l-30.06-10.12c-.03 0-.05-.01-.08-.02-.81-.29-7.96-3.02-8.81-9.79-.73-5.83 4.32-9.74 8.91-11.35L188.9 72.94c2.12-.91 8.86-3.39 13.69-.23 1.47.96 3.95 3.28 3.95 7.98q0 .495-.09.99l-23.03 116.11q-.09.465-.27.9c-.22.54-2.27 5.38-7.41 7.48-1.23.51-2.86.94-4.85.94m-45.2-30.9-8.55-6.56-1.83 16.03zm-32.48-30.88 76.07-48.31c.03-.02.06-.03.09-.05 2.49-1.52 6.1-2.93 9.18-1.08 1.52.92 2.51 2.43 2.79 4.21.08.3.14.61.18.92.31 2.93-1.62 5.14-3.32 6.73-2.08 1.94-43.97 39.61-57.41 51.68l15.8 12.35c.07.05.14.1.21.16l32.11 24.61c1.23.46 2.23.54 2.98.24.85-.35 1.45-1.2 1.7-1.62l22.58-113.81c-1.03.14-2.4.52-3.29.92-.06.02-.12.05-.19.07L63.37 133.08c-.07.03-.14.06-.21.08-.6.22-1.34.61-1.85.96.44.39 1.14.82 1.75 1.06zm126.81 74.64c-11.01 11-23.76 19.63-37.99 25.61-14.71 6.24-30.38 9.36-46.57 9.36-16.14 0-31.8-3.17-46.57-9.36a119.4 119.4 0 0 1-37.99-25.61c-11.01-11.01-19.63-23.76-25.61-38-6.25-14.71-9.42-30.37-9.42-46.51s3.17-31.8 9.37-46.57A119.3 119.3 0 0 1 50.85 50.9c11.06-11.01 23.81-19.63 38.04-25.66 14.77-6.2 30.43-9.37 46.57-9.37s31.8 3.17 46.57 9.37a119.3 119.3 0 0 1 37.99 25.61c11.01 11 19.63 23.76 25.61 37.99 6.25 14.71 9.37 30.38 9.37 46.57 0 16.14-3.18 31.8-9.37 46.56-6.03 14.24-14.66 27.04-25.61 38"
        style="fill:currentColor;fill-rule:nonzero" />
</svg>
