<svg width="214" height="24" viewBox="0 0 214 24" fill="none" xmlns="http://www.w3.org/2000/svg">
<path d="M5.914 18.216C4.918 18.216 3.964 18.084 3.052 17.82C2.14 17.556 1.408 17.22 0.856 16.812L2.044 14.562C2.62 14.982 3.268 15.306 3.988 15.534C4.708 15.762 5.446 15.876 6.202 15.876C7.006 15.876 7.642 15.744 8.11 15.48C8.578 15.216 8.812 14.856 8.812 14.4C8.812 14.028 8.626 13.746 8.254 13.554C7.882 13.35 7.288 13.134 6.472 12.906C5.656 12.666 4.99 12.438 4.474 12.222C3.958 11.994 3.508 11.658 3.124 11.214C2.752 10.77 2.566 10.182 2.566 9.45C2.566 8.598 2.8 7.848 3.268 7.2C3.748 6.552 4.42 6.054 5.284 5.706C6.16 5.358 7.174 5.184 8.326 5.184C9.178 5.184 9.982 5.28 10.738 5.472C11.494 5.652 12.142 5.916 12.682 6.264L11.584 8.496C11.116 8.172 10.588 7.932 10 7.776C9.412 7.608 8.8 7.524 8.164 7.524C7.336 7.524 6.682 7.668 6.202 7.956C5.722 8.244 5.482 8.616 5.482 9.072C5.482 9.348 5.584 9.582 5.788 9.774C5.992 9.954 6.25 10.104 6.562 10.224C6.874 10.332 7.312 10.464 7.876 10.62C8.68 10.836 9.34 11.058 9.856 11.286C10.372 11.502 10.81 11.826 11.17 12.258C11.542 12.678 11.728 13.236 11.728 13.932C11.728 14.796 11.488 15.552 11.008 16.2C10.528 16.836 9.85 17.334 8.974 17.694C8.098 18.042 7.078 18.216 5.914 18.216ZM14.9805 5.4H17.9145L15.3945 18H12.4605L14.9805 5.4ZM34.5308 5.4L32.0288 18H29.2928L30.7688 10.512L25.9628 16.668H24.6668L22.0748 10.44L20.5628 18H17.8268L20.3468 5.4H22.7228L25.8728 13.248L32.0288 5.4H34.5308ZM42.0922 5.4C43.6642 5.4 44.8762 5.748 45.7282 6.444C46.5922 7.128 47.0242 8.088 47.0242 9.324C47.0242 10.38 46.7722 11.304 46.2682 12.096C45.7762 12.876 45.0682 13.476 44.1442 13.896C43.2322 14.316 42.1522 14.526 40.9042 14.526H38.0962L37.4122 18H34.4782L36.9982 5.4H42.0922ZM41.0302 12.15C42.0022 12.15 42.7522 11.928 43.2802 11.484C43.8082 11.04 44.0722 10.404 44.0722 9.576C44.0722 8.976 43.8682 8.526 43.4602 8.226C43.0642 7.926 42.4882 7.776 41.7322 7.776H39.4462L38.5642 12.15H41.0302ZM49.466 5.4H52.4L50.348 15.624H56.666L56.18 18H46.946L49.466 5.4ZM62.8805 13.626L62.0165 18H59.1005L59.9825 13.5L56.7425 5.4H59.6585L61.9085 11.016L66.4265 5.4H69.4325L62.8805 13.626ZM79.1522 18.216C77.8682 18.216 76.7042 17.94 75.6602 17.388C74.6282 16.824 73.8122 16.05 73.2122 15.066C72.6242 14.07 72.3302 12.948 72.3302 11.7C72.3302 10.452 72.6242 9.336 73.2122 8.352C73.8122 7.356 74.6282 6.582 75.6602 6.03C76.7042 5.466 77.8742 5.184 79.1702 5.184C80.2622 5.184 81.2462 5.376 82.1222 5.76C83.0102 6.144 83.7542 6.696 84.3542 7.416L82.4822 9.144C81.6302 8.16 80.5742 7.668 79.3142 7.668C78.5342 7.668 77.8382 7.842 77.2262 8.19C76.6142 8.526 76.1342 9 75.7862 9.612C75.4502 10.224 75.2822 10.92 75.2822 11.7C75.2822 12.48 75.4502 13.176 75.7862 13.788C76.1342 14.4 76.6142 14.88 77.2262 15.228C77.8382 15.564 78.5342 15.732 79.3142 15.732C80.5742 15.732 81.6302 15.234 82.4822 14.238L84.3542 15.966C83.7542 16.698 83.0102 17.256 82.1222 17.64C81.2342 18.024 80.2442 18.216 79.1522 18.216ZM97.3394 5.4V18H94.4234V12.834H88.6994V18H85.7834V5.4H88.6994V10.368H94.4234V5.4H97.3394ZM105.882 18.216C104.574 18.216 103.392 17.934 102.336 17.37C101.292 16.806 100.47 16.032 99.8705 15.048C99.2825 14.052 98.9885 12.936 98.9885 11.7C98.9885 10.464 99.2825 9.354 99.8705 8.37C100.47 7.374 101.292 6.594 102.336 6.03C103.392 5.466 104.574 5.184 105.882 5.184C107.19 5.184 108.366 5.466 109.41 6.03C110.454 6.594 111.276 7.374 111.876 8.37C112.476 9.354 112.776 10.464 112.776 11.7C112.776 12.936 112.476 14.052 111.876 15.048C111.276 16.032 110.454 16.806 109.41 17.37C108.366 17.934 107.19 18.216 105.882 18.216ZM105.882 15.732C106.626 15.732 107.298 15.564 107.898 15.228C108.498 14.88 108.966 14.4 109.302 13.788C109.65 13.176 109.824 12.48 109.824 11.7C109.824 10.92 109.65 10.224 109.302 9.612C108.966 9 108.498 8.526 107.898 8.19C107.298 7.842 106.626 7.668 105.882 7.668C105.138 7.668 104.466 7.842 103.866 8.19C103.266 8.526 102.792 9 102.444 9.612C102.108 10.224 101.94 10.92 101.94 11.7C101.94 12.48 102.108 13.176 102.444 13.788C102.792 14.4 103.266 14.88 103.866 15.228C104.466 15.564 105.138 15.732 105.882 15.732ZM120.458 18.216C119.174 18.216 118.01 17.94 116.966 17.388C115.934 16.824 115.118 16.05 114.518 15.066C113.93 14.07 113.636 12.948 113.636 11.7C113.636 10.452 113.93 9.336 114.518 8.352C115.118 7.356 115.934 6.582 116.966 6.03C118.01 5.466 119.18 5.184 120.476 5.184C121.568 5.184 122.552 5.376 123.428 5.76C124.316 6.144 125.06 6.696 125.66 7.416L123.788 9.144C122.936 8.16 121.88 7.668 120.62 7.668C119.84 7.668 119.144 7.842 118.532 8.19C117.92 8.526 117.44 9 117.092 9.612C116.756 10.224 116.588 10.92 116.588 11.7C116.588 12.48 116.756 13.176 117.092 13.788C117.44 14.4 117.92 14.88 118.532 15.228C119.144 15.564 119.84 15.732 120.62 15.732C121.88 15.732 122.936 15.234 123.788 14.238L125.66 15.966C125.06 16.698 124.316 17.256 123.428 17.64C122.54 18.024 121.55 18.216 120.458 18.216ZM132.927 18.216C131.619 18.216 130.437 17.934 129.381 17.37C128.337 16.806 127.515 16.032 126.915 15.048C126.327 14.052 126.033 12.936 126.033 11.7C126.033 10.464 126.327 9.354 126.915 8.37C127.515 7.374 128.337 6.594 129.381 6.03C130.437 5.466 131.619 5.184 132.927 5.184C134.235 5.184 135.411 5.466 136.455 6.03C137.499 6.594 138.321 7.374 138.921 8.37C139.521 9.354 139.821 10.464 139.821 11.7C139.821 12.936 139.521 14.052 138.921 15.048C138.321 16.032 137.499 16.806 136.455 17.37C135.411 17.934 134.235 18.216 132.927 18.216ZM132.927 15.732C133.671 15.732 134.343 15.564 134.943 15.228C135.543 14.88 136.011 14.4 136.347 13.788C136.695 13.176 136.869 12.48 136.869 11.7C136.869 10.92 136.695 10.224 136.347 9.612C136.011 9 135.543 8.526 134.943 8.19C134.343 7.842 133.671 7.668 132.927 7.668C132.183 7.668 131.511 7.842 130.911 8.19C130.311 8.526 129.837 9 129.489 9.612C129.153 10.224 128.985 10.92 128.985 11.7C128.985 12.48 129.153 13.176 129.489 13.788C129.837 14.4 130.311 14.88 130.911 15.228C131.511 15.564 132.183 15.732 132.927 15.732ZM141.473 5.4H144.389V15.624H150.707V18H141.473V5.4ZM160.2 15.3H154.35L153.234 18H150.246L155.862 5.4H158.742L164.376 18H161.316L160.2 15.3ZM159.282 13.086L157.284 8.262L155.286 13.086H159.282ZM167.12 7.776H163.088V5.4H174.068V7.776H170.036V18H167.12V7.776ZM184.853 15.66V18H175.097V5.4H184.619V7.74H177.995V10.476H183.845V12.744H177.995V15.66H184.853Z" fill="#111111"/>
<path d="M192.958 15.0568L201.041 1.9886L201.521 1.48303L207.697 5.6014L207.74 8.08665L209.247 10.5463L202.587 21.1038L192.958 15.0568Z" fill="#FCF1E0"/>
<path d="M206.226 17.9097L195.587 11.2616M198.521 6.44905L209.16 13.0971M197.972 19.3982L206.774 4.96051M210.382 11.0919C208.102 9.6673 207.207 8.55395 208.674 6.14767L201.455 1.63647L192.653 16.0742L203.292 22.7223L210.382 11.0919Z" stroke="#FD9222" stroke-width="2" stroke-linecap="round" stroke-linejoin="round"/>
</svg>
